<?xml version="1.0" standalone="no"?>
<!DOCTYPE svg PUBLIC "-//W3C//DTD SVG 20010904//EN"
 "http://www.w3.org/TR/2001/REC-SVG-20010904/DTD/svg10.dtd">
<svg version="1.0" xmlns="http://www.w3.org/2000/svg"
 width="700.000000pt" height="700.000000pt" viewBox="0 0 700.000000 700.000000"
 preserveAspectRatio="xMidYMid meet">
<metadata>
Created by potrace 1.14, written by Peter Selinger 2001-2017
</metadata>
<g transform="translate(0.000000,700.000000) scale(0.100000,-0.100000)"
fill="#000000" stroke="none">
<path d="M4705 6034 c-247 -74 -272 -84 -283 -109 -7 -14 -12 -52 -12 -84 l0
-58 -192 -52 c-106 -29 -200 -54 -208 -56 -8 -2 -107 -29 -220 -60 -113 -31
-221 -60 -240 -64 -19 -5 -159 -43 -310 -84 -255 -70 -866 -234 -900 -242 -8
-2 -49 -13 -90 -24 -41 -10 -138 -36 -215 -56 -232 -60 -358 -97 -377 -109
-21 -13 -31 -39 -32 -80 -1 -28 -3 -30 -131 -67 -71 -21 -180 -52 -241 -70
-60 -17 -128 -40 -150 -53 l-39 -22 -3 -265 -2 -265 25 -14 c24 -13 25 -17 25
-109 l0 -96 43 -26 44 -26 0 -921 1 -921 -52 -33 c-101 -65 -96 -50 -96 -303
0 -217 0 -222 23 -243 12 -11 173 -95 357 -185 184 -90 423 -208 530 -262 107
-53 222 -108 255 -120 70 -27 155 -30 242 -8 133 32 311 77 558 141 127 33
363 93 525 135 162 42 349 90 415 107 66 17 131 33 145 36 14 3 34 8 45 11 11
4 25 8 30 9 46 9 364 93 840 219 55 15 150 40 210 55 365 91 556 144 602 165
86 39 88 44 89 304 l1 224 -30 28 c-16 15 -43 33 -61 39 l-32 10 0 909 1 909
47 17 47 17 6 121 c3 67 8 244 11 392 l5 270 -51 33 c-27 18 -148 94 -267 169
-120 75 -243 153 -275 172 -31 20 -102 64 -157 99 l-102 63 2 150 c1 133 -1
153 -18 171 -26 30 -228 128 -260 127 -16 0 -50 -7 -78 -15z"/>
</g>
</svg>
