<?xml version="1.0" encoding="utf-8" ?>
<svg xmlns="http://www.w3.org/2000/svg" xmlns:xlink="http://www.w3.org/1999/xlink" width="520" height="520">
	<defs>
		<linearGradient id="gradient_0" gradientUnits="userSpaceOnUse" x1="444.02979" y1="604.55237" x2="575.4248" y2="885.41937">
			<stop offset="0" stop-color="#0F0E2A"/>
			<stop offset="1" stop-color="#2C4688"/>
		</linearGradient>
	</defs>
	<path fill="url(#gradient_0)" transform="scale(0.507812 0.507812)" d="M847.599 668.311C854.382 670.852 862.38 674.127 865.485 681.25C866.51 683.6 865.704 686.382 865.412 688.827L865.551 724.675C865.59 730.361 866.29 737.007 865.439 742.602C864.974 745.659 863.046 749.657 860.867 751.867C856.052 756.75 847.607 759.456 841.15 761.379L807.5 770.096L736.456 788.379L654.812 810.066L541.528 838.762L428.539 868.037L384.336 879.387L364.375 884.304C356.418 886.312 349.369 888.238 341.077 888.024C335 887.867 328.924 886.639 323.293 884.353C313.063 880.2 303.214 874.871 293.358 869.913L256 851.434L212.66 830.131L161.011 804.802C159.218 803.848 157.533 802.713 156.112 801.25C154.726 799.822 153.828 797.971 153.573 796C152.874 790.596 153.601 784.288 153.725 778.813L153.673 751.666C153.623 746.892 153.958 742.179 153.517 737.409C156.193 740.092 158.321 742.603 161.677 744.523C169.796 749.169 178.625 752.713 187.032 756.824L240.274 782.898L278.67 801.919C287.258 806.245 295.373 811.034 304.509 814.186C308.292 811.778 335.829 816.067 342.266 815.956C346.402 815.885 350.039 814.814 354.01 813.783L356.021 813.328L398.78 801.781L486.135 778.514L711.588 719.363L788.453 699.313L822.405 690.548C828.516 688.959 834.931 687.679 840.899 685.668C843.493 684.794 845.362 683.261 847.41 681.521C847.908 677.183 847.636 672.675 847.599 668.311Z"/>
	<path fill="#5A76AD" transform="scale(0.507812 0.507812)" d="M847.599 668.311C854.382 670.852 862.38 674.127 865.485 681.25C866.51 683.6 865.704 686.382 865.412 688.827C859.701 694.145 854.207 697.524 846.791 699.951C837.632 702.948 828.225 705.009 818.88 707.302L780.5 717.021L656.638 748.989L486.5 793.541L408 814.009L383.454 820.25C377.132 821.989 370.83 824.045 364.331 825.061C357.316 826.157 350.079 826.138 343 825.9C334.418 825.611 326.899 824.137 318.977 820.767C314.149 818.714 309.4 815.98 304.509 814.186C308.292 811.778 335.829 816.067 342.266 815.956C346.402 815.885 350.039 814.814 354.01 813.783L356.021 813.328L398.78 801.781L486.135 778.514L711.588 719.363L788.453 699.313L822.405 690.548C828.516 688.959 834.931 687.679 840.899 685.668C843.493 684.794 845.362 683.261 847.41 681.521C847.908 677.183 847.636 672.675 847.599 668.311Z"/>
	<path fill="#5A76AD" transform="scale(0.507812 0.507812)" d="M648.975 154.261C656.281 150.314 664.971 148.716 672.905 146.378C682.34 143.598 691.709 140.173 701.429 138.578C708.138 141.188 714.539 144.85 721 148.033C725.947 150.47 731.84 152.634 736.141 156.124C737.63 157.333 738.747 158.972 739.453 160.75C741.366 165.566 740.095 173.782 740.063 179L740.083 205.013C748.973 209.374 757.271 215.316 765.635 220.622L805.109 245.502C804.051 245.62 803.027 245.703 802.003 246.002L801.25 247L800.625 247.002L800 247.5C798.061 248.939 795.656 250.075 793.375 250.875L792.669 251.055C791.787 251.295 792.143 251.125 791.428 251.748L791.806 251.969C780.222 256.777 766.956 259.071 754.797 262.265L689.236 279.771L510.874 326.482L407.582 353.077L376.909 361.314C370.522 363.009 363.969 364.552 357.961 367.362C357.474 367.542 357.015 367.838 356.5 367.903C355.503 368.027 318.604 348.737 313.961 346.627C313.989 341.561 314.325 336.262 313.661 331.237L313.578 330.67L313.176 328.84L238.315 292.212L239.011 290.643C240.256 288.354 242.384 286.762 244.805 285.929C260.316 280.593 276.771 276.971 292.64 272.772L380.501 249.555L645.243 178.022C645.157 172.316 644.275 165.122 646.16 159.68L646.412 159C647.094 157.088 647.61 155.788 648.975 154.261Z"/>
	<path fill="#293771" transform="scale(0.507812 0.507812)" d="M740.601 220.69L752.75 226.186L752.75 226.874L749.636 228.236L740.638 231.157C740.044 227.973 740.548 223.968 740.601 220.69Z"/>
	<path fill="#13183E" transform="scale(0.507812 0.507812)" d="M407.905 331.397C412.667 333.557 417.588 335.564 422.142 338.144C423.268 338.782 425.019 339.547 425.717 340.613L413.5 344.375C411.922 344.841 409.796 345.721 408.187 345.433L407.847 344.096L407.905 331.397Z"/>
	<path fill="#13183E" transform="scale(0.507812 0.507812)" d="M685.014 274.994L684.56 275.239C684.509 275.253 683.088 275.409 683 275.394C681.396 275.112 678.982 273.739 677.487 272.993L664.827 266.294L616.019 241.528L616.028 216.506L684.977 253.049L685.014 274.994Z"/>
	<path fill="#293771" transform="scale(0.507812 0.507812)" d="M684.977 253.049L685.617 253.001C690.454 252.614 694.764 251.189 699.403 249.919L713.799 246.193L757.5 235.148C759.854 234.556 766.953 231.951 768.973 232.46L769.165 252.226L685.014 274.994L684.977 253.049Z"/>
	<path fill="#F8F7F7" transform="scale(0.507812 0.507812)" d="M648.975 154.261C656.281 150.314 664.971 148.716 672.905 146.378C682.34 143.598 691.709 140.173 701.429 138.578C708.138 141.188 714.539 144.85 721 148.033C725.947 150.47 731.84 152.634 736.141 156.124C737.63 157.333 738.747 158.972 739.453 160.75C741.366 165.566 740.095 173.782 740.063 179L740.083 205.013C740.093 210.495 741.376 229.677 738.75 233.309C737.663 234.035 736.703 234.598 735.453 235.003C728.899 237.128 721.988 238.45 715.337 240.295L698.905 245.043C696.256 245.846 692.834 247.32 690.074 247.432C684.616 246.774 677.573 242.457 672.562 240.072L645.006 227.04L645.243 178.022C645.157 172.316 644.275 165.122 646.16 159.68L646.412 159C647.094 157.088 647.61 155.788 648.975 154.261Z"/>
	<path fill="#1ADCF3" transform="scale(0.507812 0.507812)" d="M698.234 145.531C704.997 144.887 720.735 155.043 727.081 158.709L694.307 168.236L692.75 168.603C692.727 168.606 691.384 168.687 691.25 168.644C688.841 167.869 685.993 165.712 683.668 164.47L671.613 158.153C669.694 157.17 667.335 156.281 665.635 154.975L698.234 145.531Z"/>
	<path fill="#B3B4B3" transform="scale(0.507812 0.507812)" d="M645.243 178.022C645.157 172.316 644.275 165.122 646.16 159.68L646.412 159C647.094 157.088 647.61 155.788 648.975 154.261L649.732 154.758L690.068 176.5L690.074 247.432C684.616 246.774 677.573 242.457 672.562 240.072L645.006 227.04L645.243 178.022Z"/>
	<path fill="#F8F7F7" transform="scale(0.507812 0.507812)" d="M313.583 274.436C313.916 274.006 314.145 273.469 314.582 273.144C315.362 272.565 317.36 272.09 318.322 271.738L331.119 267.69C343.256 264.187 355.274 260.297 367.689 257.914C372.352 259.185 376.627 261.897 380.919 264.09L408.004 277.918L407.905 331.397L407.847 344.096L407.582 353.077L376.909 361.314C370.522 363.009 363.969 364.552 357.961 367.362C357.474 367.542 357.015 367.838 356.5 367.903C355.503 368.027 318.604 348.737 313.961 346.627C313.989 341.561 314.325 336.262 313.661 331.237L313.578 330.67L313.176 328.84L313.063 291.085C313.062 286.48 312.075 278.618 313.583 274.436Z"/>
	<path fill="#1ADCF3" transform="scale(0.507812 0.507812)" d="M363.655 265.05C368.376 265.835 372.785 268.922 376.998 271.12L393.763 279.501C390.944 281.064 386.538 281.799 383.371 282.72L359.376 289.761C348.526 286.276 338.818 280.585 328.719 275.446C331.667 273.744 336.226 272.946 339.545 271.974L363.655 265.05Z"/>
	<path fill="#B3B4B3" transform="scale(0.507812 0.507812)" d="M313.583 274.436L314.081 274.802C320.045 279.114 327.462 281.779 334.077 284.992C342.137 288.906 350.087 293.268 358.348 296.718L358.268 297.326C357.404 304.231 357.889 311.099 357.96 318.03L357.839 342.441L357.681 359.873C357.659 362.126 357.225 365.253 357.961 367.362C357.474 367.542 357.015 367.838 356.5 367.903C355.503 368.027 318.604 348.737 313.961 346.627C313.989 341.561 314.325 336.262 313.661 331.237L313.578 330.67L313.176 328.84L313.063 291.085C313.062 286.48 312.075 278.618 313.583 274.436Z"/>
	<path fill="#6E5C27" transform="scale(0.507812 0.507812)" d="M175.203 446.827L333.974 525.711C338.389 527.014 345.406 529.477 349.905 528.698L350.091 528.69C352.128 528 354.355 527.722 356.472 527.346L356.021 813.328L354.01 813.783C350.039 814.814 346.402 815.885 342.266 815.956C335.829 816.067 308.292 811.778 304.509 814.186C295.373 811.034 287.258 806.245 278.67 801.919L240.274 782.898L187.032 756.824C178.625 752.713 169.796 749.169 161.677 744.523C158.321 742.603 156.193 740.092 153.517 737.409C153.521 736.365 153.561 735.328 153.813 734.309C155.39 727.93 169.341 720.95 174.862 717.374L175.238 714.495L175.203 446.827Z"/>
	<path fill="#293771" transform="scale(0.507812 0.507812)" d="M175.238 714.495L175.266 715.016C175.453 719.053 175.165 723.109 175.085 727.148C175.062 728.325 174.882 730.802 175.339 731.805C175.69 732.577 176.975 733.748 177.648 734.347C183.113 739.212 190.858 742.115 197.37 745.319L227.602 760.106L296.305 793.839L322.001 806.636C325.922 808.474 330.076 809.603 333.979 811.388C340.691 812.672 347.167 813.602 354.01 813.783C350.039 814.814 346.402 815.885 342.266 815.956C335.829 816.067 308.292 811.778 304.509 814.186C295.373 811.034 287.258 806.245 278.67 801.919L240.274 782.898L187.032 756.824C178.625 752.713 169.796 749.169 161.677 744.523C158.321 742.603 156.193 740.092 153.517 737.409C153.521 736.365 153.561 735.328 153.813 734.309C155.39 727.93 169.341 720.95 174.862 717.374L175.238 714.495Z"/>
	<path fill="#A7832F" transform="scale(0.507812 0.507812)" d="M333.974 525.711C338.389 527.014 345.406 529.477 349.905 528.698L350.091 528.69C352.128 528 354.355 527.722 356.472 527.346L356.021 813.328L354.01 813.783C347.167 813.602 340.691 812.672 333.979 811.388L333.974 525.711Z"/>
	<defs>
		<linearGradient id="gradient_1" gradientUnits="userSpaceOnUse" x1="434.56915" y1="469.7294" x2="586.24152" y2="144.45978">
			<stop offset="0" stop-color="#5569A4"/>
			<stop offset="1" stop-color="#5D81B5"/>
		</linearGradient>
	</defs>
	<path fill="url(#gradient_1)" transform="scale(0.507812 0.507812)" d="M805.109 245.502L850 273.508L860.674 280.317C861.553 280.925 863.41 281.973 864.001 282.75C864.066 282.836 864.397 283.986 864.402 284.029L864.391 284.921L864.15 344.387L864.086 356.911C864.075 358.202 864.321 360.49 863.803 361.647C863.267 362.843 861.57 364.692 860.717 365.665L860.984 397.121L847.717 402.292C837.518 405.803 826.142 407.734 815.642 410.378L735.986 430.141L504.184 489.25L396.35 517.25L370.355 523.994C365.874 525.152 361.084 527.018 356.472 527.346C354.355 527.722 352.128 528 350.091 528.69L349.905 528.698C345.406 529.477 338.389 527.014 333.974 525.711L175.203 446.827C171.044 444.345 166.609 442.535 162.943 439.3C162.101 437.172 162.496 433.675 162.467 431.318L162.256 413.898L162.184 412C161.9 410.291 156.626 408.155 154.972 407.285L155.174 332.311L155.573 331.475C156.696 329.277 159.081 327.592 161.25 326.531C170.176 322.166 180.866 319.988 190.411 317.161L238.133 302.864L238.315 292.212L313.176 328.84L313.578 330.67L313.661 331.237C314.325 336.262 313.989 341.561 313.961 346.627C318.604 348.737 355.503 368.027 356.5 367.903C357.015 367.838 357.474 367.542 357.961 367.362C363.969 364.552 370.522 363.009 376.909 361.314L407.582 353.077L510.874 326.482L689.236 279.771L754.797 262.265C766.956 259.071 780.222 256.777 791.806 251.969L791.428 251.748C792.143 251.125 791.787 251.295 792.669 251.055L793.375 250.875C795.656 250.075 798.061 248.939 800 247.5L800.625 247.002L801.25 247L802.003 246.002C803.027 245.703 804.051 245.62 805.109 245.502Z"/>
	<path fill="#13183E" transform="scale(0.507812 0.507812)" d="M238.315 292.212L313.176 328.84L313.578 330.67L313.661 331.237C314.325 336.262 313.989 341.561 313.961 346.627C318.604 348.737 355.503 368.027 356.5 367.903C357.015 367.838 357.474 367.542 357.961 367.362C363.969 364.552 370.522 363.009 376.909 361.314L407.582 353.077C407.5 353.96 407.455 357.11 406.863 357.568C405.788 358.398 403.937 358.757 402.63 359.158L392.309 362.19L365.052 369.534C361.22 370.441 356.966 371.691 353.046 371.987C353.971 376.147 353.595 380.894 353.621 385.153C353.647 389.266 354.024 393.766 353.3 397.81L352.623 398.331C344.622 395.444 337.171 390.81 329.525 387.063L284.447 365.211L284.508 357.329L237.995 334.622L238.133 302.864L238.315 292.212Z"/>
	<path fill="#5A76AD" transform="scale(0.507812 0.507812)" d="M313.578 330.67L313.661 331.237C314.325 336.262 313.989 341.561 313.961 346.627C318.604 348.737 355.503 368.027 356.5 367.903C357.015 367.838 357.474 367.542 357.961 367.362C363.969 364.552 370.522 363.009 376.909 361.314L407.582 353.077C407.5 353.96 407.455 357.11 406.863 357.568C405.788 358.398 403.937 358.757 402.63 359.158L392.309 362.19L365.052 369.534C361.22 370.441 356.966 371.691 353.046 371.987C351.501 370.772 349.184 369.924 347.397 369.055L336.515 363.78L286.904 339.571C295.031 335.71 304.665 334.207 313.089 330.869L313.578 330.67Z"/>
	<path fill="#293771" transform="scale(0.507812 0.507812)" d="M791.806 251.969L792.297 251.842C796.375 250.749 800.093 248.765 803.489 246.278L803.498 283.908L732.653 302.361L599.064 336.479L441.69 376.345L387.105 390.192L357.359 398.031C355.67 398.426 354.41 398.588 352.672 398.364L352.623 398.331L353.3 397.81C354.024 393.766 353.647 389.266 353.621 385.153C353.595 380.894 353.971 376.147 353.046 371.987C356.966 371.691 361.22 370.441 365.052 369.534L392.309 362.19L402.63 359.158C403.937 358.757 405.788 358.398 406.863 357.568C407.455 357.11 407.5 353.96 407.582 353.077L510.874 326.482L689.236 279.771L754.797 262.265C766.956 259.071 780.222 256.777 791.806 251.969Z"/>
	<path fill="#13183E" transform="scale(0.507812 0.507812)" d="M162.256 413.898L162.184 412C161.9 410.291 156.626 408.155 154.972 407.285L155.174 332.311C160.923 336.1 167.114 339.026 173.251 342.123L202.607 356.826L282.062 397.162L336.972 425.534L337.006 499.427C341.008 500.372 346.315 498.107 350.119 496.798L350.091 528.69L349.905 528.698C345.406 529.477 338.389 527.014 333.974 525.711L175.203 446.827C171.044 444.345 166.609 442.535 162.943 439.3C162.101 437.172 162.496 433.675 162.467 431.318L162.256 413.898Z"/>
	<path fill="#882828" transform="scale(0.507812 0.507812)" d="M162.256 413.898L162.675 411.685C165.653 412.426 168.91 414.573 171.675 415.966L191.5 425.952L268.204 464.597L315.985 488.642C322.775 492.072 330.766 495.191 337.006 499.427C341.008 500.372 346.315 498.107 350.119 496.798L350.091 528.69L349.905 528.698C345.406 529.477 338.389 527.014 333.974 525.711L175.203 446.827C171.044 444.345 166.609 442.535 162.943 439.3C162.101 437.172 162.496 433.675 162.467 431.318L162.256 413.898Z"/>
	<path fill="#293771" transform="scale(0.507812 0.507812)" d="M336.972 425.534C342.151 424.936 347.009 423.189 352.018 421.848L377.947 415.044L476.5 390.073L731.32 326.285L804.672 307.86L831.702 301.118C839.79 299.081 848.29 297.196 855.614 293.054C857.627 291.916 862.51 289.117 863.75 287.257C864.059 286.794 864.23 285.508 864.391 284.921L864.15 344.387L864.086 356.911C864.075 358.202 864.321 360.49 863.803 361.647C863.267 362.843 861.57 364.692 860.717 365.665L860.984 397.121L847.717 402.292C837.518 405.803 826.142 407.734 815.642 410.378L735.986 430.141L504.184 489.25L396.35 517.25L370.355 523.994C365.874 525.152 361.084 527.018 356.472 527.346C354.355 527.722 352.128 528 350.091 528.69L350.119 496.798C346.315 498.107 341.008 500.372 337.006 499.427L336.972 425.534Z"/>
	<path fill="#FEF9D3" transform="scale(0.507812 0.507812)" d="M762.761 340.55C765.34 340.587 765.514 340.364 767.336 342.131C768.305 350.558 767.541 359.783 767.52 368.3L743.75 374.695L742.25 374.981L741.238 374.089C740.301 373.152 739.504 371.855 739.045 370.615C738.339 368.707 738.765 365.626 738.782 363.565L738.938 346.965L762.761 340.55Z"/>
	<path fill="#ECAF30" transform="scale(0.507812 0.507812)" d="M419.422 433.25L421.003 433.079C422.027 434.255 421.591 437.448 421.592 439.079L421.481 456.488L387.75 464.972C386.67 464.896 386.805 464.857 386.021 464.25L385.623 442.264L419.422 433.25Z"/>
	<path fill="#ECAF30" transform="scale(0.507812 0.507812)" d="M476.618 418.75L477.937 418.75C478.852 421.18 478.465 424.409 478.472 427.002L478.467 442.766L441.25 451.996C440.191 451.875 440.328 451.858 439.576 451.25L439.456 428.173L476.618 418.75Z"/>
	<path fill="#ECAF30" transform="scale(0.507812 0.507812)" d="M719.094 352.75C719.911 352.662 720.02 352.792 720.75 353.095C721.792 356.04 721.611 359.433 721.613 362.534L721.26 378.769L685.25 387.157C684.606 387.242 684.131 387.112 683.5 386.989C682.537 384.757 682.991 381.181 682.987 378.73L683.004 362.223L719.094 352.75Z"/>
	<path fill="#ECAF30" transform="scale(0.507812 0.507812)" d="M821.48 327.25L823.004 327.064C824.543 328.831 824.205 332.145 824.214 334.438L824.184 353.271L789.225 362.25C788.535 362.354 787.873 362.33 787.177 362.328C786.084 359.626 786.5 356.117 786.489 353.216L786.48 336.213L821.48 327.25Z"/>
	<path fill="#ED561F" transform="scale(0.507812 0.507812)" d="M350.119 496.798L451.183 470.991L716.467 403.714L797.964 383.22L825.825 376.458C838.201 373.578 849.244 371.475 860.717 365.665L860.984 397.121L847.717 402.292C837.518 405.803 826.142 407.734 815.642 410.378L735.986 430.141L504.184 489.25L396.35 517.25L370.355 523.994C365.874 525.152 361.084 527.018 356.472 527.346C354.355 527.722 352.128 528 350.091 528.69L350.119 496.798Z"/>
	<path fill="#ECAF30" transform="scale(0.507812 0.507812)" d="M356.472 527.346C361.084 527.018 365.874 525.152 370.355 523.994L396.35 517.25L504.184 489.25L735.986 430.141L815.642 410.378C826.142 407.734 837.518 405.803 847.717 402.292L847.599 668.311C847.636 672.675 847.908 677.183 847.41 681.521C845.362 683.261 843.493 684.794 840.899 685.668C834.931 687.679 828.516 688.959 822.405 690.548L788.453 699.313L711.588 719.363L486.135 778.514L398.78 801.781L356.021 813.328L356.472 527.346Z"/>
	<path fill="#882828" transform="scale(0.507812 0.507812)" d="M526.404 621.133L597.151 604.704L582.874 705.325C580.773 709.765 576.911 714.446 574.124 718.558L583.107 618.948L514.995 635.932C515.072 634.526 524.648 623.212 526.404 621.133Z"/>
	<path fill="#ED561F" transform="scale(0.507812 0.507812)" d="M526.404 621.133L557.24 578.921C562.983 571.025 614.211 499.013 616.399 497.839L612.967 586.994L684.505 566.304L611.245 666.879L597.206 686.261C592.739 692.686 588.411 699.747 582.874 705.325L597.151 604.704L526.404 621.133Z"/>
	<path fill="#A7832F" transform="scale(0.507812 0.507812)" d="M479.263 525.555C479.984 525.453 480.444 525.593 481.146 525.75C482.328 530.398 481.451 537.396 481.452 542.271L481.458 579.619L481.509 745.23L419.764 760.819C418.73 760.91 418.633 760.923 417.75 760.561C416.672 755.408 417.493 748.423 417.494 743.036L417.503 702.481L417.535 541.269L479.263 525.555Z"/>
	<path fill="#A7832F" transform="scale(0.507812 0.507812)" d="M791.525 446.25L793.004 446.116L793.559 446.75L794.422 518.903L795.493 618.282L795.941 652.198C795.97 654.913 796.824 661.571 795.672 663.836L727.436 681.75C726.393 681.894 726.453 682.038 725.461 681.5C724.324 677.703 725.028 672.291 725.02 668.218L724.894 639.131L722.992 463.058L791.525 446.25Z"/>
</svg>
