<?xml version="1.0" encoding="utf-8" ?>
<svg xmlns="http://www.w3.org/2000/svg" xmlns:xlink="http://www.w3.org/1999/xlink" width="1049" height="1049">
	<path fill="#FEFEFE" transform="scale(1.02441 1.02441)" d="M294.036 254.884C296.156 253.362 299.625 252.636 302.105 251.829L319.291 246.281L353.457 234.741C357.482 236.102 361.586 239.059 365.343 241.143L385.684 252.324C390.829 256.048 396.723 258.862 402.313 261.87C405.065 263.35 408.287 264.735 410.633 266.816C398.195 272.656 384.438 276.596 371.463 281.151L360.15 285.11C358.324 285.738 356.401 286.623 354.459 286.605L318.366 267.943C310.451 263.837 301.339 259.929 294.036 254.884Z"/>
	<path fill="#FEFEFE" transform="scale(1.02441 1.02441)" d="M629.575 142.113C636.981 138.029 646.363 135.534 654.328 132.543L677.351 123.904C680.804 122.62 685.443 120.31 689.119 120.124C697.045 123.115 704.934 128.884 712.379 133.018L734.643 145.292C738.298 147.296 743.024 149.193 746.076 151.998C745.034 153.322 743.882 153.866 742.35 154.505C737.491 156.533 732.311 158.025 727.342 159.807L701.294 169.586C697.775 170.92 692.835 174.095 689.278 174.602L687.961 174.597C681.971 172.455 676.258 168.893 670.637 165.908C656.85 158.589 642.262 151.169 629.575 142.113Z"/>
	<path fill="#DBD6D6" transform="scale(1.02441 1.02441)" d="M842.866 649.656L871.507 669.675L871.189 736.414L722.262 784.675L485.188 861.377L390.924 891.926L366.398 899.894C362.224 901.255 357.654 903.279 353.329 903.884L166.933 802.121C164.98 801.071 153.686 795.491 153.409 794.158L153.473 727.351L182.246 715.228L182.34 726.462L225.227 749.942L311.473 797.495L338.131 812.367C343.503 815.377 348.67 818.766 354.466 820.914L355.157 821.326C360.447 820.465 366.124 818.028 371.242 816.382L407.973 804.509L537.214 762.684L752.5 693.073L814.5 673.039L843.017 663.74L842.866 649.656Z"/>
	<path fill="#DBD6D6" transform="scale(1.02441 1.02441)" d="M629.052 170.785L628.977 150.253C628.967 147.724 628.382 144.298 629.575 142.113C642.262 151.169 656.85 158.589 670.637 165.908C676.258 168.893 681.971 172.455 687.961 174.597L689.278 174.602C692.835 174.095 697.775 170.92 701.294 169.586L727.342 159.807C732.311 158.025 737.491 156.533 742.35 154.505C743.882 153.866 745.034 153.322 746.076 151.998C747.247 155.317 746.585 160.115 746.585 163.705C746.587 174.333 745.73 185.768 746.968 196.276L746.955 196.55L862.71 260.64L868.5 263.808L868.507 282.037L868.554 333.424L868.613 344.749C868.651 347.016 868.972 349.566 868.56 351.773L852.998 356.48L353.68 515.42L230.28 443.958L192.175 422.1C185.542 418.258 179.201 413.605 172.025 410.825L152.37 398.997C151.373 385.803 152.184 372.057 152.202 358.797C152.217 347.369 151.35 335.101 152.53 323.75C153.448 322.73 154.174 322.122 155.448 321.589C161.495 319.059 167.938 317.27 174.104 315.015L226.319 296.299L293.761 271.959C294.698 266.667 292.169 260.036 294.036 254.884C301.339 259.929 310.451 263.837 318.366 267.943L354.459 286.605C356.401 286.623 358.324 285.738 360.15 285.11L371.463 281.151C384.438 276.596 398.195 272.656 410.633 266.816C408.287 264.735 405.065 263.35 402.313 261.87C396.723 258.862 390.829 256.048 385.684 252.324L629.052 170.785Z"/>
	<path fill="#747373" transform="scale(1.02441 1.02441)" d="M709.094 355.75C710.364 355.513 709.759 355.428 710.912 356C711.637 361.174 711.306 366.46 711.189 371.669L670.25 384.659C669.261 384.894 669.452 385.03 668.47 384.5C667.619 379.483 667.861 373.57 668.251 368.512L709.094 355.75Z"/>
	<path fill="#747373" transform="scale(1.02441 1.02441)" d="M485.277 427.25L487 427.061C487.804 428.224 487.478 429.791 487.478 431.194L487.484 443.496L446.75 456.978L445.155 456.87C443.588 453.139 444.503 444.533 444.481 440.242L485.277 427.25Z"/>
	<path fill="#747373" transform="scale(1.02441 1.02441)" d="M773.616 335.75L774.667 335.752C775.352 337.027 775.137 338.722 775.171 340.136L775.428 351.888L732.75 365.683C731.708 365.852 732.219 365.944 731.25 365.269L731.038 349.024L773.616 335.75Z"/>
	<path fill="#747373" transform="scale(1.02441 1.02441)" d="M423.046 446.75C424.022 446.622 423.524 446.533 424.48 447.25L424.495 463.492L381.25 476.872L380.659 476.656C379.108 474.423 379.665 464.006 379.565 460.814L423.046 446.75Z"/>
	<path fill="#747373" transform="scale(1.02441 1.02441)" d="M838.542 315.25L840.25 314.998C841.732 316.781 840.977 328.838 841.001 331.857L797.75 344.829C796.874 345.047 796.553 345.105 795.63 344.973L795 328.805L838.542 315.25Z"/>
	<path fill="#222F13" transform="scale(1.02441 1.02441)" d="M629.052 170.785L628.977 150.253C628.967 147.724 628.382 144.298 629.575 142.113C642.262 151.169 656.85 158.589 670.637 165.908C676.258 168.893 681.971 172.455 687.961 174.597C688.302 174.981 688.759 175.288 688.983 175.75C689.239 176.279 688.986 178.836 688.987 179.513L688.998 194.61L689.002 236.128L688.999 245.875C688.998 247.339 689.25 249.325 688.964 250.743C688.825 251.429 688.74 251.516 688.456 252.053C682.01 249.586 675.38 245.033 669.288 241.668L629.052 219.511L629.052 170.785Z"/>
	<path fill="#747373" transform="scale(1.02441 1.02441)" d="M410.633 266.816L411.823 266.75C412.757 268.002 412.4 270.072 412.406 271.57L412.388 287.106L412.489 347.111C403.41 351.264 393.152 353.729 383.685 356.982C378.396 358.8 357.761 367.264 354.365 366.66L354.069 366.54L354.438 365.73C354.96 364.004 354.695 361.594 354.709 359.792L354.803 348.299L354.99 302.284L355.01 291.488C355.015 289.812 355.246 288.142 354.459 286.605C356.401 286.623 358.324 285.738 360.15 285.11L371.463 281.151C384.438 276.596 398.195 272.656 410.633 266.816Z"/>
	<path fill="#747373" transform="scale(1.02441 1.02441)" d="M746.076 151.998C747.247 155.317 746.585 160.115 746.585 163.705C746.587 174.333 745.73 185.768 746.968 196.276L746.955 196.55L747.502 233.179L712.265 245.252C706.369 247.316 700.624 249.981 694.599 251.64C692.758 252.147 690.66 252.866 688.772 252.225L688.456 252.053C688.74 251.516 688.825 251.429 688.964 250.743C689.25 249.325 688.998 247.339 688.999 245.875L689.002 236.128L688.998 194.61L688.987 179.513C688.986 178.836 689.239 176.279 688.983 175.75C688.759 175.288 688.302 174.981 687.961 174.597L689.278 174.602C692.835 174.095 697.775 170.92 701.294 169.586L727.342 159.807C732.311 158.025 737.491 156.533 742.35 154.505C743.882 153.866 745.034 153.322 746.076 151.998Z"/>
	<path fill="#222F13" transform="scale(1.02441 1.02441)" d="M294.036 254.884C301.339 259.929 310.451 263.837 318.366 267.943L354.459 286.605C355.246 288.142 355.015 289.812 355.01 291.488L354.99 302.284L354.803 348.299L354.709 359.792C354.695 361.594 354.96 364.004 354.438 365.73L354.069 366.54C349.393 365.563 344.92 362.59 340.79 360.253L321.94 349.636L293.812 334.484L293.761 271.959C294.698 266.667 292.169 260.036 294.036 254.884Z"/>
	<path fill="#FEFEFE" transform="scale(1.02441 1.02441)" d="M868.507 282.037L349.013 447.914L348.621 433.827C348.569 431.75 348.183 428.994 348.733 427.008L861.875 260.982L862.71 260.64L868.5 263.808L868.507 282.037Z"/>
	<path fill="#747373" transform="scale(1.02441 1.02441)" d="M852.998 356.48L853.069 385.958C849.809 387.095 846.02 388.66 842.605 389.065L842.618 573.917L842.761 624.815C842.766 632.837 842.018 641.708 842.866 649.656L843.017 663.74L814.5 673.039L752.5 693.073L537.214 762.684L407.973 804.509L371.242 816.382C366.124 818.028 360.447 820.465 355.157 821.326L354.466 820.914C348.67 818.766 343.503 815.377 338.131 812.367L311.473 797.495L225.227 749.942L182.34 726.462L182.246 715.228L182.166 444.365L182.276 443.385L172.002 437.926C171.47 435.265 171.859 432.003 171.878 429.282L172.025 410.825C179.201 413.605 185.542 418.258 192.175 422.1L230.28 443.958L353.68 515.42L852.998 356.48Z"/>
	<path fill="#242424" transform="scale(1.02441 1.02441)" d="M606.821 493.097C607.66 501.817 606.574 511.462 606.381 520.263L604.966 581.794L672.498 568.782C671.019 572.593 668.358 576.278 666.302 579.806L656.013 598.092L617.191 669.467L603.188 695.714C601.036 699.763 598.464 706.368 595.153 709.315L594.695 707.857L594.893 629.843L525.835 643.944L606.821 493.097Z"/>
	<path fill="#FEFEFE" transform="scale(1.02441 1.02441)" d="M474.265 537.25L475.342 537.626C476.251 544.427 475.615 552.091 475.629 558.981L475.697 601.786L475.887 745.05C472.424 746.977 468.374 747.973 464.607 749.15L450.618 753.813L390.25 773.875L388.827 773.842C387.787 770.746 388.467 765.366 388.464 761.968L388.447 733.179L388.399 614.901L388.392 579.846C388.391 574.738 387.787 568.697 388.573 563.701L474.265 537.25Z"/>
	<path fill="#FEFEFE" transform="scale(1.02441 1.02441)" d="M808.087 431.75C808.979 431.482 809.463 431.425 810.381 431.597C811.038 433.192 810.855 434.974 810.865 436.673L810.876 447L810.837 484.798L810.68 642.209L720.648 670.747C719.597 670.874 719.725 671.026 718.75 670.416C717.76 664.973 718.512 658.053 718.51 652.453L718.498 611.424L718.488 459.431L808.087 431.75Z"/>
	<path fill="#242424" transform="scale(1.02441 1.02441)" d="M852.998 356.48L853.069 385.958C849.809 387.095 846.02 388.66 842.605 389.065L355.088 543.5L354.976 751.548L354.961 802.551C354.957 806.257 355.892 817.993 354.466 820.914C348.67 818.766 343.503 815.377 338.131 812.367L311.473 797.495L225.227 749.942L182.34 726.462L182.246 715.228L182.166 444.365L182.276 443.385L172.002 437.926C171.47 435.265 171.859 432.003 171.878 429.282L172.025 410.825C179.201 413.605 185.542 418.258 192.175 422.1L230.28 443.958L353.68 515.42L852.998 356.48Z"/>
</svg>
